<?xml version="1.0" standalone="no"?>
<!DOCTYPE svg PUBLIC "-//W3C//DTD SVG 20010904//EN"
 "http://www.w3.org/TR/2001/REC-SVG-20010904/DTD/svg10.dtd">
<svg version="1.0" xmlns="http://www.w3.org/2000/svg"
 width="460.000000pt" height="460.000000pt" viewBox="0 0 460.000000 460.000000"
 preserveAspectRatio="xMidYMid meet">
<metadata>
Created by potrace 1.11, written by Peter Selinger 2001-2013
</metadata>
<g transform="translate(0.000000,460.000000) scale(0.100000,-0.100000)"
fill="#000000" stroke="none">
<path d="M2167 4356 c4 -5 -1 -7 -10 -3 -9 3 -19 2 -23 -4 -3 -5 -15 -7 -26
-3 -14 4 -18 2 -14 -5 7 -11 5 -12 -36 -15 -13 -1 -22 -8 -20 -15 1 -7 -2 -10
-8 -6 -12 7 -70 -16 -70 -28 0 -5 -4 -5 -10 -2 -5 3 -10 1 -10 -5 0 -6 -4 -8
-10 -5 -5 3 -10 2 -10 -4 0 -6 -7 -7 -17 -4 -11 4 -14 3 -9 -5 4 -7 -3 -14
-19 -18 -13 -3 -22 -10 -19 -15 3 -5 -2 -6 -10 -3 -11 4 -16 0 -16 -11 0 -9
-4 -14 -9 -10 -5 3 -17 -3 -27 -12 -10 -10 -21 -18 -25 -18 -4 0 -16 -10 -27
-23 -11 -13 -23 -23 -26 -22 -7 1 -23 -12 -67 -52 -16 -16 -32 -28 -36 -28
-10 0 -51 -49 -45 -54 3 -3 0 -6 -6 -6 -7 0 -22 -11 -34 -25 -11 -13 -26 -22
-31 -18 -6 3 -7 1 -3 -5 3 -6 -3 -16 -14 -22 -11 -6 -17 -16 -14 -22 5 -7 2
-9 -9 -5 -9 3 -16 3 -16 -1 3 -20 -2 -33 -11 -27 -5 3 -10 -1 -10 -9 0 -9 -8
-16 -17 -16 -9 0 -14 -3 -10 -6 8 -8 -16 -33 -25 -27 -7 4 -12 -12 -9 -29 0
-5 -5 -8 -12 -8 -8 0 -20 -11 -27 -25 -7 -13 -18 -22 -23 -18 -6 3 -7 1 -4 -4
4 -6 -2 -18 -13 -28 -11 -10 -17 -23 -13 -29 3 -6 3 -8 -2 -4 -8 7 -65 -50
-65 -65 0 -5 -4 -6 -9 -2 -6 3 -8 -4 -6 -15 2 -11 0 -18 -4 -15 -5 2 -17 -7
-27 -21 -11 -15 -25 -32 -31 -39 -7 -8 -13 -17 -13 -22 0 -4 -9 -14 -20 -21
-11 -7 -20 -18 -20 -25 0 -7 -9 -18 -20 -25 -11 -7 -20 -21 -20 -33 0 -11 -4
-18 -8 -15 -5 3 -16 -8 -26 -25 -9 -16 -22 -29 -27 -29 -6 0 -7 -4 -4 -10 3
-5 -1 -10 -10 -10 -9 0 -14 -4 -10 -9 3 -5 -8 -24 -25 -42 -16 -18 -28 -35
-26 -37 2 -2 -8 -16 -22 -32 -46 -50 -57 -64 -54 -73 1 -4 -5 -10 -13 -13 -8
-4 -15 -12 -15 -19 0 -7 -10 -20 -23 -29 -12 -9 -15 -14 -7 -11 10 4 9 2 -2
-8 -10 -8 -15 -17 -11 -20 3 -4 0 -7 -7 -7 -7 0 -11 -3 -8 -6 6 -5 -38 -54
-49 -54 -8 0 -53 -53 -53 -63 0 -4 -11 -19 -25 -33 -14 -14 -25 -30 -25 -37 0
-7 -9 -19 -20 -27 -11 -8 -20 -22 -20 -32 0 -10 -4 -18 -10 -18 -5 0 -10 -7
-10 -15 0 -8 -4 -15 -10 -15 -5 0 -10 -7 -10 -15 0 -9 -7 -18 -15 -21 -8 -4
-12 -10 -9 -15 3 -5 -2 -9 -10 -9 -10 0 -16 -9 -16 -25 0 -14 -4 -25 -8 -25
-4 0 -14 -20 -21 -45 -7 -24 -23 -55 -35 -68 -12 -13 -20 -29 -18 -35 2 -7 -1
-12 -8 -12 -6 0 -8 -4 -5 -10 3 -5 2 -10 -4 -10 -6 0 -19 -18 -29 -40 -10 -22
-22 -37 -27 -33 -4 5 -5 3 -1 -4 4 -7 -2 -21 -14 -33 -23 -23 -26 -34 -7 -25
6 4 4 0 -5 -8 -10 -8 -18 -19 -18 -24 0 -6 -9 -22 -20 -35 -10 -14 -16 -28
-13 -32 3 -3 1 -6 -5 -6 -7 0 -11 -3 -11 -7 3 -21 -2 -33 -13 -27 -7 4 -8 3
-4 -4 7 -11 -11 -51 -28 -63 -5 -4 -6 -11 -2 -17 3 -6 -2 -15 -11 -21 -14 -8
-15 -10 -3 -11 9 0 11 -3 5 -8 -16 -12 -35 -50 -35 -72 0 -11 -7 -23 -15 -26
-8 -4 -12 -10 -9 -15 3 -6 0 -17 -8 -26 -8 -11 -9 -14 -1 -10 8 5 8 -1 -2 -19
-8 -15 -12 -31 -9 -36 3 -4 1 -8 -5 -8 -6 0 -8 -7 -5 -15 4 -8 2 -15 -4 -15
-6 0 -9 -8 -7 -17 1 -10 -2 -24 -8 -30 -6 -9 -6 -13 2 -13 8 0 8 -4 -1 -14 -7
-8 -17 -11 -23 -8 -5 3 -5 -1 2 -9 14 -17 6 -59 -10 -59 -6 0 -2 -6 9 -14 18
-14 18 -15 2 -21 -10 -4 -18 -11 -18 -17 0 -5 4 -6 10 -3 5 3 10 1 10 -4 0 -6
-5 -11 -11 -11 -13 0 -11 -228 3 -254 7 -12 7 -16 0 -12 -14 9 -9 -19 7 -38 7
-9 10 -16 6 -16 -4 0 -1 -8 6 -17 10 -11 10 -14 1 -9 -6 4 -12 2 -12 -4 0 -6
7 -13 16 -17 13 -5 13 -7 2 -14 -11 -7 -11 -9 1 -9 7 0 11 -6 7 -15 -3 -8 -1
-15 5 -15 6 0 7 -4 4 -10 -3 -5 -1 -10 5 -10 6 0 9 -4 6 -9 -3 -5 1 -14 9 -21
8 -7 15 -21 15 -31 0 -11 5 -19 10 -19 6 0 10 -6 10 -13 0 -7 9 -23 20 -35 11
-12 20 -25 20 -29 0 -5 9 -15 20 -23 11 -8 20 -20 20 -27 0 -7 7 -13 17 -13 9
0 14 -3 10 -6 -7 -8 25 -44 34 -38 4 2 10 -5 14 -16 3 -11 10 -20 15 -20 5 0
24 -14 42 -30 18 -17 38 -30 46 -30 7 0 10 -5 7 -10 -3 -6 1 -10 9 -10 9 0 16
-5 16 -11 0 -5 4 -8 8 -5 5 3 16 -4 25 -15 10 -11 22 -17 27 -14 6 3 10 1 10
-4 0 -6 9 -11 20 -11 11 0 20 -5 20 -10 0 -6 12 -16 27 -23 16 -6 34 -17 41
-24 8 -7 18 -11 23 -8 5 4 9 1 9 -4 0 -6 3 -10 8 -10 20 3 32 -2 26 -13 -4 -6
-3 -8 3 -5 5 3 21 0 36 -8 15 -8 27 -11 27 -8 0 3 6 0 13 -6 8 -6 17 -8 20 -4
4 3 7 1 7 -5 0 -7 9 -12 20 -12 11 0 20 -5 20 -11 0 -5 4 -8 9 -4 5 3 17 -2
25 -11 12 -11 16 -12 16 -2 0 10 2 10 9 -1 5 -7 13 -11 19 -7 6 3 15 -2 21
-11 8 -14 10 -15 11 -3 0 13 1 13 10 0 5 -8 10 -11 10 -6 0 4 11 1 25 -8 18
-12 25 -13 25 -4 0 8 3 9 8 3 14 -20 49 -34 59 -24 6 6 14 5 22 -5 7 -8 18
-13 26 -10 7 3 16 1 20 -5 3 -6 19 -11 35 -11 16 0 31 -4 35 -10 3 -5 12 -7
20 -3 9 3 15 -1 15 -8 0 -12 2 -12 9 0 6 9 11 10 15 2 4 -6 12 -9 17 -6 5 4 9
1 9 -6 0 -10 3 -10 12 -1 9 9 16 8 30 -5 10 -9 18 -12 18 -7 0 5 5 2 10 -6 7
-11 10 -11 10 -2 0 8 5 10 12 6 7 -4 24 -9 38 -11 42 -5 55 -8 67 -16 6 -4 15
-2 18 3 5 7 12 5 21 -7 10 -13 13 -14 14 -4 0 11 3 11 18 -2 11 -11 22 -13 32
-7 8 5 19 5 25 1 5 -5 22 -8 38 -7 18 1 27 -3 28 -14 0 -10 3 -9 9 5 5 11 9
14 9 8 1 -7 4 -12 9 -12 4 1 9 0 12 -1 5 -2 87 -9 143 -12 15 -1 27 -6 27 -11
0 -5 7 -4 15 3 10 9 15 9 15 1 0 -6 5 -11 11 -11 5 0 7 5 3 12 -5 8 -3 8 7 2
14 -9 24 -11 97 -13 31 -1 41 -4 36 -13 -6 -10 -4 -10 7 -1 15 15 33 18 25 5
-3 -5 1 -9 9 -9 8 0 12 4 9 9 -3 4 -1 8 5 8 5 0 12 -6 15 -12 5 -11 7 -11 12
0 3 6 10 12 15 12 6 0 8 -4 4 -10 -8 -13 306 -12 322 2 9 7 17 7 27 -1 11 -9
15 -9 19 1 4 10 6 10 6 0 1 -9 9 -8 29 5 26 17 27 17 12 -1 -14 -18 -14 -19 7
-8 11 6 57 13 101 15 45 2 87 9 95 15 11 9 17 10 22 2 3 -6 10 -8 15 -5 5 3
34 6 64 7 31 1 56 6 56 11 0 5 8 3 17 -4 14 -12 16 -12 11 1 -4 12 4 15 46 14
28 -1 54 4 59 10 5 7 9 8 15 1 9 -13 27 -13 39 -1 5 6 2 6 -7 1 -8 -5 -12 -4
-7 0 4 5 30 9 57 10 27 1 53 5 57 8 3 4 14 7 24 7 9 0 20 6 22 13 4 9 6 9 6
-1 1 -9 7 -10 19 -4 9 4 27 7 40 6 12 0 22 2 22 6 0 7 9 9 55 12 14 1 25 6 25
11 0 5 6 5 13 -2 10 -8 17 -7 26 2 6 6 24 12 39 13 17 0 26 5 24 14 -3 11 0
11 12 0 9 -7 16 -8 16 -2 0 6 11 9 25 8 13 -2 22 1 19 5 -5 9 9 12 49 12 9 0
17 3 17 8 0 5 7 6 15 3 8 -4 15 -2 15 4 0 5 18 12 40 16 27 4 39 10 34 18 -4
7 -3 8 5 4 17 -11 53 3 44 17 -4 7 1 6 10 -2 9 -7 17 -9 17 -4 0 5 10 9 22 10
11 1 24 7 28 14 4 6 12 9 18 5 6 -3 15 2 21 11 6 10 11 14 11 9 0 -4 12 -1 26
9 18 12 24 13 19 4 -3 -8 1 -5 9 5 10 13 16 15 16 6 0 -8 7 -5 19 8 10 12 21
19 24 16 3 -4 13 1 22 10 9 9 21 14 26 11 5 -4 9 -1 9 6 0 7 3 10 6 6 3 -3 16
3 27 14 12 11 27 17 34 15 7 -3 12 0 10 6 -1 7 3 12 8 13 9 0 39 20 94 60 8 5
30 26 50 46 20 20 44 38 54 42 9 4 17 12 17 19 1 7 14 24 30 38 17 13 30 30
30 37 0 8 7 16 15 19 8 4 12 10 9 15 -3 5 0 9 5 9 6 0 11 7 11 15 0 8 5 15 11
15 6 0 8 7 5 16 -3 8 -2 12 4 9 6 -3 11 -1 11 4 3 22 4 27 22 64 10 21 16 45
13 53 -3 8 0 13 7 11 9 -1 12 59 13 256 1 159 -3 257 -8 257 -6 0 -8 7 -5 15
4 8 2 17 -3 20 -6 4 -10 16 -10 29 0 12 -6 28 -12 35 -11 11 -10 12 2 6 12 -7
13 -6 3 7 -7 8 -10 18 -6 21 3 4 1 7 -6 7 -8 0 -11 7 -7 15 3 8 1 15 -5 15 -6
0 -9 10 -7 23 2 12 -2 27 -9 32 -7 6 -14 22 -15 38 -1 15 -6 27 -10 27 -4 0
-8 9 -8 20 0 11 -4 20 -10 20 -5 0 -10 9 -10 19 0 11 -5 23 -10 26 -6 4 -8 11
-5 16 4 5 1 9 -5 9 -7 0 -10 6 -7 14 3 8 -1 17 -9 20 -9 3 -12 10 -9 16 3 5 1
10 -6 10 -7 0 -9 3 -6 7 4 3 -1 15 -10 26 -13 15 -14 18 -3 12 13 -8 13 -6 1
8 -7 9 -18 14 -24 10 -6 -3 -7 -1 -3 5 4 6 1 22 -6 34 -7 13 -11 26 -10 30 1
5 -3 8 -9 8 -5 0 -8 4 -5 9 3 5 -1 12 -10 15 -9 4 -14 9 -11 12 3 4 -1 13 -9
21 -8 9 -13 22 -10 30 3 8 1 11 -4 8 -6 -3 -10 0 -10 9 0 8 -4 16 -9 18 -5 2
-11 10 -13 18 -2 8 -7 18 -13 22 -5 4 -10 11 -11 15 -2 20 -17 42 -25 37 -5
-3 -9 4 -9 15 0 12 -4 21 -9 21 -5 0 -13 9 -16 20 -3 11 -13 26 -20 34 -8 8
-16 20 -17 27 -2 7 -11 22 -20 33 -10 10 -15 23 -12 28 3 4 -1 8 -9 8 -9 0
-14 10 -14 26 0 23 -19 70 -33 84 -4 4 -24 40 -65 121 -5 10 -13 19 -17 19 -5
0 -8 7 -8 16 0 8 -34 49 -75 90 -42 40 -73 74 -69 74 3 0 -8 12 -25 26 -17 14
-31 32 -31 40 0 9 -4 13 -9 9 -9 -5 -27 32 -23 48 1 4 -4 6 -10 5 -7 -2 -12 3
-10 10 1 6 -5 12 -14 12 -8 0 -12 5 -9 10 3 6 -1 13 -9 16 -9 3 -16 12 -16 20
0 8 -4 14 -10 14 -5 0 -10 6 -10 14 0 8 -9 21 -20 29 -11 8 -17 17 -14 20 4 4
-1 9 -10 13 -9 3 -16 12 -16 19 0 8 -11 22 -25 33 -13 11 -21 22 -18 26 3 3 2
6 -4 6 -5 0 -15 12 -21 26 -7 14 -17 22 -22 19 -6 -3 -10 2 -10 12 0 10 -9 25
-19 33 -11 7 -18 17 -15 22 3 4 -2 8 -11 8 -9 0 -14 4 -11 9 3 5 -1 11 -9 15
-8 3 -15 11 -15 17 0 7 -13 24 -29 40 -16 15 -27 30 -24 33 3 3 -2 8 -11 12
-9 3 -16 12 -16 20 0 8 -7 14 -16 14 -10 0 -14 6 -10 15 3 8 0 14 -7 12 -7 -1
-11 4 -9 11 1 8 -1 11 -5 9 -5 -3 -14 1 -21 9 -7 8 -10 14 -7 14 3 0 -3 8 -12
18 -10 11 -21 17 -25 15 -5 -2 -8 3 -8 11 0 9 -4 16 -10 16 -5 0 -10 7 -10 17
0 9 -3 13 -6 10 -7 -7 -54 42 -54 56 0 4 -7 7 -15 7 -9 0 -20 10 -25 23 -5 12
-9 19 -9 16 -1 -4 -28 20 -61 53 -33 32 -60 55 -60 51 -1 -4 -10 3 -20 16 -11
13 -20 21 -20 18 0 -3 -14 7 -32 23 -17 16 -34 27 -38 25 -3 -2 -13 5 -20 16
-8 10 -18 19 -23 19 -5 0 -15 7 -24 16 -9 8 -22 13 -30 10 -8 -3 -12 -2 -9 3
5 8 -42 36 -56 33 -5 -1 -8 2 -8 8 0 6 -7 10 -16 10 -9 0 -12 5 -8 12 4 6 3 8
-4 4 -11 -7 -106 27 -98 35 3 3 -7 4 -22 4 -15 -1 -31 1 -37 4 -5 3 -13 6 -17
7 -5 1 -11 3 -15 4 -22 9 -301 5 -296 -4z"/>
</g>
</svg>
